<svg width="248" height="260" viewBox="0 0 248 260" fill="none" xmlns="http://www.w3.org/2000/svg">
<path d="M126.315 122.007C122.483 115.304 117.035 109.119 106.938 106.688C98.285 104.605 90.481 107.178 83.6784 112.6C83.6784 112.6 85.2997 115.918 85.7826 118.03C87.0808 123.71 84.1195 131.177 78.6867 134.345L61.7038 144.245C53.5634 148.991 33.3393 137.689 31.0027 134.345C27.1095 128.772 14.8355 94.2729 14.8355 94.2729C13.2407 91.4836 12.6564 87.3265 13.6669 83.0972C14.6591 78.9441 17.0298 75.3776 20.5151 73.3429C25.2516 70.5835 30.8498 67.3222 36.0237 64.3081C43.2894 60.0672 50.1832 61.0772 54.5784 64.235C56.7047 65.7627 59.5181 65.8974 61.7781 64.5799C61.7781 64.5799 102.712 29.8287 121.484 19.6206C140.255 9.41255 160.595 1.7105 179.421 3.14232C189.245 3.88959 201.558 8.30547 210.696 15.9201C216.981 21.1577 213.437 30.0246 202.907 27.481C187.659 23.7976 185.414 25.2565 175.624 30.9644C156.044 42.3793 147.984 62.3859 156.296 76.9218L243.446 229.345C245.411 232.782 244.905 238.66 240.486 241.236L213.667 256.872C210.022 258.997 193.782 251.807 191.265 247.406L126.315 122.007Z" stroke="white" stroke-width="5" stroke-linejoin="round"/>
<path d="M113.71 116.89C109.878 110.188 104.431 104.003 94.3334 101.572C85.6802 99.4889 77.8763 102.062 71.0736 107.484C71.0736 107.484 72.695 110.801 73.1778 112.914C74.4761 118.594 71.5147 126.061 66.082 129.229L49.099 139.129C40.9587 143.875 31.5227 140.387 27.8915 134.037L2.23073 89.1568C0.635918 86.3675 0.0516709 82.2104 1.06213 77.9811C2.05436 73.828 4.42509 70.2615 7.91035 68.2267C12.6469 65.4674 18.245 62.2061 23.4189 59.192C30.6847 54.9511 37.5784 55.9611 41.9736 59.1189C44.1 60.6466 46.9134 60.7813 49.1734 59.4638L126.053 14.6436C144.825 4.43553 162.33 -0.244162 181.155 1.18765C190.98 1.93492 190.943 2.798 201.437 8.3966C207.17 11.4546 209.292 17.5294 207.742 18.9967C206.192 20.4639 205.521 20.872 195.855 18.537C180.607 14.8535 172.81 20.1404 163.019 25.8483C143.439 37.2632 135.38 57.2697 143.691 71.8056L230.842 224.229C232.806 227.666 232.3 233.544 227.881 236.12L201.062 251.756C197.417 253.881 191.656 252.943 189.139 248.541L113.71 116.89Z" fill="white"/>
</svg>
